<?xml version="1.0" encoding="UTF-8" standalone="no"?>
<!-- Created with Inkscape (http://www.inkscape.org/) -->

<svg
   width="40"
   height="40"
   viewBox="0 0 10.583333 10.583334"
   version="1.1"
   id="svg1"
   inkscape:version="1.3.2 (091e20e, 2023-11-25)"
   sodipodi:docname="gemini-block-icon.svg"
   inkscape:export-filename="gemini-block-icon.png"
   inkscape:export-xdpi="96"
   inkscape:export-ydpi="96"
   xmlns:inkscape="http://www.inkscape.org/namespaces/inkscape"
   xmlns:sodipodi="http://sodipodi.sourceforge.net/DTD/sodipodi-0.dtd"
   xmlns="http://www.w3.org/2000/svg"
   xmlns:svg="http://www.w3.org/2000/svg">
  <sodipodi:namedview
     id="namedview1"
     pagecolor="#ffffff"
     bordercolor="#000000"
     borderopacity="0.25"
     inkscape:showpageshadow="2"
     inkscape:pageopacity="0.0"
     inkscape:pagecheckerboard="true"
     inkscape:deskcolor="#d1d1d1"
     inkscape:document-units="px"
     inkscape:zoom="3.176265"
     inkscape:cx="18.732694"
     inkscape:cy="56.3555"
     inkscape:window-width="1704"
     inkscape:window-height="1127"
     inkscape:window-x="100"
     inkscape:window-y="1159"
     inkscape:window-maximized="0"
     inkscape:current-layer="layer1" />
  <defs
     id="defs1" />
  <g
     inkscape:label="Layer 1"
     inkscape:groupmode="layer"
     id="layer1">
    <g
       id="g1"
       transform="matrix(0.73674662,0,0,0.73674667,1.2189903,1.3808021)"
       style="stroke-width:1.35732">
      <path
         id="path1"
         style="fill:#000000;fill-opacity:1;stroke:#000000;stroke-width:0.359123;stroke-linecap:round;stroke-linejoin:round;stroke-dasharray:none"
         d="m 11.52892,11.569339 c 0,0 -3.575926,-2.307175 -6.0009995,-2.358612 -2.6673441,-0.05657 -6.26099847,2.098607 -6.26099847,2.098607 0,0 2.36923827,-3.5759479 2.42067387,-6.0010462 0.056572,-2.6673595 -2.16067712,-6.26105062 -2.16067712,-6.26105062 0,0 3.57592242,2.41176332 6.00100172,2.46319862 2.6673383,0.056572 6.2609985,-2.20320079 6.2609985,-2.20320079 0,0 -2.3344931,3.57595359 -2.3859301,6.00105279 -0.05657,2.667361 2.1259311,6.2610512 2.1259311,6.2610512 z"
         sodipodi:nodetypes="cccscscsc" />
      <path
         id="path1-8"
         style="fill:#ffffff;fill-opacity:1;stroke:none;stroke-width:0.359123;stroke-linecap:round;stroke-linejoin:round;stroke-dasharray:none"
         d="m 11.52892,11.569339 c 0,0 -3.5759289,-3.9345896 -6.0010023,-3.9860277 -2.6673441,-0.056573 -6.26099567,3.7260227 -6.26099567,3.7260227 0,0 3.89458157,-3.5759453 3.94601727,-6.0010436 0.056571,-2.6673595 -3.68602052,-6.26105322 -3.68602052,-6.26105322 0,0 3.57591962,3.94443512 6.00099892,3.99587042 2.6673383,0.056572 6.2610013,-3.73587259 6.2610013,-3.73587259 0,0 -3.9112237,3.57595619 -3.9626594,6.00105539 -0.056572,2.667361 3.7026604,6.2610486 3.7026604,6.2610486 z"
         sodipodi:nodetypes="cccscscsc" />
    </g>
  </g>
</svg>
